<svg width="21.500000" height="21.500000" viewBox="0 0 21.5 21.5" fill="none" xmlns="http://www.w3.org/2000/svg" xmlns:xlink="http://www.w3.org/1999/xlink">
	<desc>
			Created with Pixso.
	</desc>
	<defs/>
	<path id="Форма 3" d="M20.75 10.75C20.75 5.22714 16.2729 0.75 10.75 0.75C5.22714 0.75 0.75 5.22714 0.75 10.75C0.75 16.2729 5.22714 20.75 10.75 20.75C16.2729 20.75 20.75 16.2729 20.75 10.75ZM13.25 7.75C13.25 6.36929 12.1307 5.25 10.75 5.25C9.36929 5.25 8.25 6.36929 8.25 7.75C8.25 9.13071 9.36929 10.25 10.75 10.25C12.1307 10.25 13.25 9.13071 13.25 7.75ZM3.76099 17.916C3.93283 15.3103 6.1008 13.25 8.75 13.25L12.75 13.25C15.3957 13.25 17.5614 15.3048 17.7383 17.9056" stroke="#FFFFFF" stroke-opacity="1.000000" stroke-width="1.500000" stroke-linejoin="round" stroke-linecap="round"/>
</svg>
