<svg width="10.000000" height="10.000000" viewBox="0 0 10 10" fill="none" xmlns="http://www.w3.org/2000/svg" xmlns:xlink="http://www.w3.org/1999/xlink">
	<desc>
			Created with Pixso.
	</desc>
	<defs>
		<clipPath id="clip93_20">
			<rect id="Нижний круг" width="10.000000" height="10.000000" fill="white" fill-opacity="0"/>
		</clipPath>
	</defs>
	<g clip-path="url(#clip93_20)">
		<path id="path" d="M4.99 9.16C7.3 9.16 9.16 7.3 9.16 4.99C9.16 2.69 7.3 0.83 4.99 0.83C2.69 0.83 0.83 2.69 0.83 4.99C0.83 7.3 2.69 9.16 4.99 9.16Z" fill="#0F0F0F" fill-opacity="1.000000" fill-rule="nonzero"/>
		<path id="path" d="M9.16 4.99C9.16 2.69 7.3 0.83 4.99 0.83C2.69 0.83 0.83 2.69 0.83 4.99C0.83 7.3 2.69 9.16 4.99 9.16C7.3 9.16 9.16 7.3 9.16 4.99Z" stroke="#000000" stroke-opacity="1.000000" stroke-width="1.500000" stroke-linejoin="round"/>
		<path id="path" d="M6.34 3.87L6.34 3.84C6.64 3.54 7.1 3.54 7.4 3.84C7.7 4.14 7.7 4.6 7.4 4.9L7.37 4.9L6.34 3.87ZM2.62 4.9L2.59 4.9C2.29 4.6 2.29 4.14 2.59 3.84C2.89 3.54 3.35 3.54 3.65 3.84L3.65 3.87L2.62 4.9Z" fill="#000000" fill-opacity="0" fill-rule="nonzero"/>
		<path id="path" d="M6.87 4.37L5 6.25L3.12 4.37" stroke="#327DE7" stroke-opacity="1.000000" stroke-width="1.500000" stroke-linejoin="round" stroke-linecap="round"/>
	</g>
</svg>
