<svg width="24.000000" height="24.000000" viewBox="0 0 24 24" fill="none" xmlns="http://www.w3.org/2000/svg" xmlns:xlink="http://www.w3.org/1999/xlink">
	<desc>
			Created with Pixso.
	</desc>
	<defs>
		<clipPath id="clip16_616">
			<rect id="Напоминать" width="24.000000" height="24.000000" fill="white" fill-opacity="0"/>
		</clipPath>
	</defs>
	<g clip-path="url(#clip16_616)">
		<path id="path" d="M12 2C8.13 2 5 5.13 5 9L5 19L19 19L19 9C19 5.13 15.86 2 12 2Z" fill="#000000" fill-opacity="0" fill-rule="nonzero"/>
		<path id="path" d="M5 19.75C5.41 19.75 5.75 19.42 5.75 19L18.25 19C18.25 19.42 18.58 19.75 19 19.75C19.41 19.75 19.75 19.42 19.75 19L19.73 18.98L19 18.98L19 9C19 5.13 15.86 2 12 2C8.13 2 5 5.13 5 9L5 18.98L4.27 18.98L4.25 19C4.25 19.42 4.58 19.75 5 19.75ZM2.02 19.73L2 19.75C1.58 19.75 1.25 19.42 1.25 19C1.25 18.58 1.58 18.25 2 18.25L2.02 18.27L2.02 19.73ZM22 18.25L21.98 18.27L21.98 19.73L22 19.75C22.41 19.75 22.75 19.42 22.75 19C22.75 18.58 22.41 18.25 22 18.25Z" fill="#000000" fill-opacity="0" fill-rule="evenodd"/>
		<path id="path" d="M5 19L5 9C5 5.13 8.13 2 12 2C15.86 2 19 5.13 19 9L19 19M2 19L22 19" stroke="#327DE7" stroke-opacity="1.000000" stroke-width="1.500000" stroke-linejoin="round"/>
		<path id="path" d="M12 22C13.38 22 14.5 20.88 14.5 19.5L14.5 19L9.5 19L9.5 19.5C9.5 20.88 10.61 22 12 22Z" fill="#000000" fill-opacity="0" fill-rule="nonzero"/>
		<path id="path" d="M14.5 19.5L14.5 19L9.5 19L9.5 19.5C9.5 20.88 10.61 22 12 22C13.38 22 14.5 20.88 14.5 19.5Z" stroke="#327DE7" stroke-opacity="1.000000" stroke-width="1.500000" stroke-linejoin="round"/>
	</g>
</svg>
