<svg width="21.499939" height="21.500000" viewBox="0 0 21.4999 21.5" fill="none" xmlns="http://www.w3.org/2000/svg" xmlns:xlink="http://www.w3.org/1999/xlink">
	<desc>
			Created with Pixso.
	</desc>
	<defs/>
	<path id="Форма 10" d="M7.75 3.75L3.75 3.75L3.75 7.75L0.75 10.75L3.75 13.75L3.75 17.75L7.75 17.75L10.75 20.75L13.75 17.75L17.75 17.75L17.75 13.75L20.75 10.75L17.75 7.75L17.75 3.75L13.75 3.75L10.75 0.75L7.75 3.75ZM13.75 10.75C13.75 9.09314 12.4069 7.75 10.75 7.75C9.09314 7.75 7.75 9.09314 7.75 10.75C7.75 12.4069 9.09314 13.75 10.75 13.75C12.4069 13.75 13.75 12.4069 13.75 10.75Z" stroke="#FFFFFF" stroke-opacity="1.000000" stroke-width="1.500000" stroke-linejoin="round"/>
</svg>
