<svg width="15.500000" height="19.500000" viewBox="0 0 15.5 19.5" fill="none" xmlns="http://www.w3.org/2000/svg" xmlns:xlink="http://www.w3.org/1999/xlink">
	<desc>
			Created with Pixso.
	</desc>
	<defs/>
	<path id="Форма 9" d="M3.25 0.75C4.35455 0.75 5.25 1.64542 5.25 2.75C5.25 3.85458 4.35455 4.75 3.25 4.75C2.14545 4.75 1.25 3.85458 1.25 2.75C1.25 1.64542 2.14545 0.75 3.25 0.75ZM12.25 0.75C13.3546 0.75 14.25 1.64542 14.25 2.75C14.25 3.85458 13.3546 4.75 12.25 4.75C11.1454 4.75 10.25 3.85458 10.25 2.75C10.25 1.64542 11.1454 0.75 12.25 0.75ZM5.75 7.75L4.75 18.75L1.75 18.75L0.75 7.75L5.75 7.75ZM14.75 7.75L13.75 18.75L10.75 18.75L9.75 7.75L14.75 7.75Z" stroke="#FFFFFF" stroke-opacity="1.000000" stroke-width="1.500000" stroke-linejoin="round"/>
</svg>
